<svg width="1600" height="900" viewBox="0 0 1600 900" fill="none" xmlns="http://www.w3.org/2000/svg">
  <defs>
    <linearGradient id="skyGradient" x1="0%" y1="0%" x2="0%" y2="100%">
      <stop offset="0%" style="stop-color:#60A5FA;stop-opacity:1" />
      <stop offset="100%" style="stop-color:#3B82F6;stop-opacity:1" />
    </linearGradient>
    <linearGradient id="buildingGradient" x1="0%" y1="0%" x2="0%" y2="100%">
      <stop offset="0%" style="stop-color:#374151;stop-opacity:1" />
      <stop offset="100%" style="stop-color:#1F2937;stop-opacity:1" />
    </linearGradient>
  </defs>
  
  <rect width="1600" height="900" fill="url(#skyGradient)"/>
  
  <!-- Buildings silhouette -->
  <rect x="0" y="600" width="200" height="300" fill="url(#buildingGradient)"/>
  <rect x="200" y="550" width="150" height="350" fill="url(#buildingGradient)"/>
  <rect x="350" y="580" width="180" height="320" fill="url(#buildingGradient)"/>
  <rect x="530" y="520" width="160" height="380" fill="url(#buildingGradient)"/>
  <rect x="690" y="560" width="140" height="340" fill="url(#buildingGradient)"/>
  <rect x="830" y="500" width="170" height="400" fill="url(#buildingGradient)"/>
  <rect x="1000" y="540" width="150" height="360" fill="url(#buildingGradient)"/>
  <rect x="1150" y="580" width="180" height="320" fill="url(#buildingGradient)"/>
  <rect x="1330" y="520" width="160" height="380" fill="url(#buildingGradient)"/>
  <rect x="1490" y="600" width="110" height="300" fill="url(#buildingGradient)"/>
  
  <!-- Windows -->
  <rect x="20" y="620" width="8" height="12" fill="#FCD34D" opacity="0.8"/>
  <rect x="40" y="640" width="8" height="12" fill="#FCD34D" opacity="0.6"/>
  <rect x="220" y="570" width="8" height="12" fill="#FCD34D" opacity="0.9"/>
  <rect x="240" y="590" width="8" height="12" fill="#FCD34D" opacity="0.7"/>
  <rect x="370" y="600" width="8" height="12" fill="#FCD34D" opacity="0.8"/>
  <rect x="550" y="540" width="8" height="12" fill="#FCD34D" opacity="0.9"/>
  <rect x="710" y="580" width="8" height="12" fill="#FCD34D" opacity="0.6"/>
  <rect x="850" y="520" width="8" height="12" fill="#FCD34D" opacity="0.8"/>
  <rect x="1020" y="560" width="8" height="12" fill="#FCD34D" opacity="0.7"/>
  <rect x="1170" y="600" width="8" height="12" fill="#FCD34D" opacity="0.9"/>
  <rect x="1350" y="540" width="8" height="12" fill="#FCD34D" opacity="0.8"/>
</svg>